<svg xmlns="http://www.w3.org/2000/svg" viewBox="0 0 410 404"><defs><linearGradient id="a" x1="255.68" x2="72.84" y1="7.61" y2="359.13" gradientUnits="userSpaceOnUse"><stop stop-color="#41d1ff"/><stop offset="1" stop-color="#bd34fe"/></linearGradient><linearGradient id="b" x1="344.52" x2="198.88" y1="58.55" y2="292.63" gradientUnits="userSpaceOnUse"><stop stop-color="#ffea83"/><stop offset="0.08" stop-color="#ffdd35"/><stop offset="1" stop-color="#ffa800"/></linearGradient></defs><path fill="url(#a)" d="M399.9 34.79L215.63 388.85a17.77 17.77 0 0 1-31.57.26L9.38 34.79A17.77 17.77 0 0 1 25 .14h360.26a17.77 17.77 0 0 1 14.64 26.3Z"/><path fill="url(#b)" d="M292.66.14 156.49 280.3a8.89 8.89 0 0 0 15.88 8.24L340.69 54.36a8.89 8.89 0 0 0-7.64-13.08h-68.8L317.23 19a8.89 8.89 0 0 0-7.64-13.1Z"/></svg>
